<?xml version="1.0" encoding="UTF-8"?>
<svg xmlns="http://www.w3.org/2000/svg" xmlns:xlink="http://www.w3.org/1999/xlink" width="256px" height="256px" viewBox="0 0 256 256" version="1.1">
<g id="surface1">
<path style=" stroke:none;fill-rule:nonzero;fill:rgb(25.098039%,70.196078%,87.843137%);fill-opacity:1;" d="M 128 0 C 57.308594 0 0 57.308594 0 128 C 0 198.691406 57.308594 256 128 256 C 198.691406 256 256 198.691406 256 128 C 256 57.308594 198.691406 0 128 0 Z M 128 0 "/>
<path style=" stroke:none;fill-rule:nonzero;fill:rgb(100%,100%,100%);fill-opacity:1;" d="M 190.28125 73.628906 L 167.421875 188.898438 C 167.421875 188.898438 164.222656 196.890625 155.429688 193.054688 L 102.671875 152.605469 L 83.488281 143.335938 L 51.195312 132.460938 C 51.195312 132.460938 46.238281 130.703125 45.757812 126.867188 C 45.28125 123.03125 51.355469 120.953125 51.355469 120.953125 L 179.730469 70.59375 C 179.730469 70.59375 190.28125 65.957031 190.28125 73.628906 "/>
<path style=" stroke:none;fill-rule:nonzero;fill:rgb(82.352941%,89.803922%,94.509804%);fill-opacity:1;" d="M 98.617188 187.601562 C 98.617188 187.601562 97.078125 187.460938 95.160156 181.382812 C 93.242188 175.308594 83.488281 143.335938 83.488281 143.335938 L 161.027344 94.09375 C 161.027344 94.09375 165.503906 91.375 165.34375 94.09375 C 165.34375 94.09375 166.140625 94.574219 163.742188 96.8125 C 161.347656 99.050781 102.832031 151.648438 102.832031 151.648438 "/>
<path style=" stroke:none;fill-rule:nonzero;fill:rgb(70.980392%,81.176471%,89.411765%);fill-opacity:1;" d="M 122.902344 168.117188 L 102.035156 187.140625 C 102.035156 187.140625 100.402344 188.378906 98.617188 187.601562 L 102.613281 152.261719 "/>
</g>
</svg>
