<?xml version="1.0" encoding="UTF-8"?>
<svg xmlns="http://www.w3.org/2000/svg" xmlns:xlink="http://www.w3.org/1999/xlink" width="256px" height="256px" viewBox="0 0 256 256" version="1.1">
<g id="surface1">
<path style=" stroke:none;fill-rule:nonzero;fill:rgb(11.372549%,63.137255%,94.901961%);fill-opacity:1;" d="M 256 128 C 256 198.691406 198.691406 256 128 256 C 57.308594 256 0 198.691406 0 128 C 0 57.308594 57.308594 0 128 0 C 198.691406 0 256 57.308594 256 128 Z M 256 128 "/>
<path style=" stroke:none;fill-rule:nonzero;fill:rgb(100%,100%,100%);fill-opacity:1;" d="M 194.5 88.699219 C 189.800781 90.773438 184.773438 92.175781 179.476562 92.824219 C 184.875 89.574219 189.023438 84.449219 190.976562 78.351562 C 185.925781 81.300781 180.300781 83.449219 174.351562 84.648438 C 169.574219 79.550781 162.800781 76.351562 155.25 76.351562 C 140.800781 76.351562 129.074219 88.074219 129.074219 102.5 C 129.074219 104.574219 129.324219 106.574219 129.75 108.476562 C 108 107.449219 88.699219 97 75.800781 81.199219 C 73.523438 85.050781 72.25 89.5 72.25 94.375 C 72.25 103.476562 76.875 111.476562 83.898438 116.175781 C 79.601562 116.023438 75.574219 114.851562 72.050781 112.898438 L 72.050781 113.226562 C 72.050781 125.925781 81.050781 136.5 93.050781 138.898438 C 90.851562 139.5 88.523438 139.800781 86.148438 139.800781 C 84.476562 139.800781 82.875 139.648438 81.273438 139.351562 C 84.625 149.75 94.273438 157.324219 105.773438 157.523438 C 96.851562 164.550781 85.5 168.726562 73.324219 168.726562 C 71.25 168.726562 69.175781 168.601562 67.101562 168.375 C 78.75 175.800781 92.476562 180.125 107.300781 180.125 C 155.425781 180.125 181.75 140.25 181.75 105.726562 C 181.75 104.625 181.75 103.5 181.675781 102.375 C 186.773438 98.699219 191.25 94.074219 194.75 88.824219 Z M 194.5 88.699219 "/>
</g>
</svg>
