<?xml version="1.0" encoding="UTF-8"?>
<svg xmlns="http://www.w3.org/2000/svg" xmlns:xlink="http://www.w3.org/1999/xlink" width="256px" height="256px" viewBox="0 0 256 256" version="1.1">
<g id="surface1">
<path style=" stroke:none;fill-rule:nonzero;fill:rgb(0%,0%,0%);fill-opacity:1;" d="M 128 21.332031 C 69.089844 21.332031 21.332031 69.089844 21.332031 128 C 21.332031 175.148438 51.945312 215.148438 94.292969 229.332031 C 99.625 230.1875 101.332031 226.878906 101.332031 224 C 101.332031 221.546875 101.332031 214.828125 101.332031 205.972656 C 71.785156 212.375 65.492188 191.679688 65.492188 191.679688 C 60.585938 179.308594 53.652344 176 53.652344 176 C 43.945312 169.386719 54.398438 169.601562 54.398438 169.601562 C 65.066406 170.347656 70.71875 180.585938 70.71875 180.585938 C 80 196.800781 95.679688 192 101.761719 189.441406 C 102.71875 182.507812 105.492188 177.8125 108.480469 175.148438 C 84.800781 172.480469 59.945312 163.308594 59.945312 122.667969 C 59.945312 110.828125 64 101.332031 70.933594 93.761719 C 69.867188 91.09375 66.132812 80 72 65.601562 C 72 65.601562 80.960938 62.71875 101.332031 76.480469 C 109.761719 74.132812 118.933594 72.960938 128 72.960938 C 137.066406 72.960938 146.238281 74.132812 154.667969 76.480469 C 175.039062 62.71875 184 65.601562 184 65.601562 C 189.867188 80 186.132812 91.09375 185.066406 93.761719 C 192 101.332031 196.054688 110.828125 196.054688 122.667969 C 196.054688 163.414062 171.09375 172.375 147.308594 175.039062 C 151.148438 178.347656 154.667969 184.851562 154.667969 194.773438 L 154.667969 224 C 154.667969 226.878906 156.375 230.292969 161.8125 229.332031 C 204.160156 215.039062 234.667969 175.148438 234.667969 128 C 234.667969 69.089844 186.910156 21.332031 128 21.332031 Z M 128 21.332031 "/>
</g>
</svg>
