<?xml version="1.0" encoding="UTF-8"?>
<svg xmlns="http://www.w3.org/2000/svg" xmlns:xlink="http://www.w3.org/1999/xlink" width="64px" height="63px" viewBox="0 0 64 63" version="1.1">
<g id="surface1">
<path style=" stroke:none;fill-rule:nonzero;fill:rgb(14.901961%,30.196078%,89.411765%);fill-opacity:1;" d="M 9.460938 56.703125 L 4.445312 0 L 59.554688 0 L 54.535156 56.691406 L 31.96875 63 Z M 9.460938 56.703125 "/>
<path style=" stroke:none;fill-rule:nonzero;fill:rgb(16.078431%,39.607843%,94.509804%);fill-opacity:1;" d="M 50.234375 53.082031 L 54.527344 4.636719 L 32 4.636719 L 32 58.179688 Z M 50.234375 53.082031 "/>
<path style=" stroke:none;fill-rule:nonzero;fill:rgb(92.156863%,92.156863%,92.156863%);fill-opacity:1;" d="M 15.945312 25.667969 L 16.5625 32.621094 L 32 32.621094 L 32 25.667969 Z M 15.328125 18.542969 L 32 18.542969 L 32 11.589844 L 14.699219 11.589844 Z M 32 43.726562 L 31.96875 43.734375 L 24.285156 41.644531 L 23.796875 36.097656 L 16.867188 36.097656 L 17.835938 47.015625 L 31.96875 50.972656 L 32 50.964844 Z M 32 43.726562 "/>
<path style=" stroke:none;fill-rule:nonzero;fill:rgb(100%,100%,100%);fill-opacity:1;" d="M 31.976562 25.667969 L 31.976562 32.621094 L 40.472656 32.621094 L 39.671875 41.640625 L 31.976562 43.734375 L 31.976562 50.96875 L 46.121094 47.015625 L 46.222656 45.84375 L 47.84375 27.535156 L 48.011719 25.667969 L 49.257812 11.589844 L 31.976562 11.589844 L 31.976562 18.542969 L 41.695312 18.542969 L 41.070312 25.667969 Z M 31.976562 25.667969 "/>
</g>
</svg>
