<?xml version="1.0" encoding="UTF-8"?>
<svg xmlns="http://www.w3.org/2000/svg" xmlns:xlink="http://www.w3.org/1999/xlink" width="64px" height="63px" viewBox="0 0 64 63" version="1.1">
<g id="surface1">
<path style=" stroke:none;fill-rule:nonzero;fill:rgb(0%,0%,0%);fill-opacity:1;" d="M 13.984375 0 L 16.789062 0 L 16.789062 2.804688 L 19.378906 2.804688 L 19.378906 0 L 22.1875 0 L 22.1875 8.488281 L 19.378906 8.488281 L 19.378906 5.660156 L 16.8125 5.660156 L 16.8125 8.488281 L 13.984375 8.488281 M 25.898438 2.832031 L 23.417969 2.832031 L 23.417969 0 L 31.195312 0 L 31.195312 2.832031 L 28.703125 2.832031 L 28.703125 8.488281 L 25.898438 8.488281 M 32.429688 0 L 35.367188 0 L 37.175781 2.992188 L 38.984375 0 L 41.921875 0 L 41.921875 8.488281 L 39.117188 8.488281 L 39.117188 4.28125 L 37.152344 7.332031 L 35.1875 4.28125 L 35.1875 8.488281 L 32.425781 8.488281 M 43.316406 0 L 46.125 0 L 46.125 5.683594 L 50.101562 5.683594 L 50.101562 8.488281 L 43.316406 8.488281 "/>
<path style=" stroke:none;fill-rule:nonzero;fill:rgb(89.411765%,30.196078%,14.901961%);fill-opacity:1;" d="M 13.882812 57.957031 L 9.855469 12.378906 L 54.144531 12.378906 L 50.117188 57.929688 L 31.960938 63 "/>
<path style=" stroke:none;fill-rule:nonzero;fill:rgb(94.509804%,39.607843%,16.078431%);fill-opacity:1;" d="M 32 59.125 L 32 16.121094 L 50.101562 16.121094 L 46.648438 55.003906 "/>
<path style=" stroke:none;fill-rule:nonzero;fill:rgb(92.156863%,92.156863%,92.156863%);fill-opacity:1;" d="M 18.085938 21.695312 L 32 21.695312 L 32 27.28125 L 24.164062 27.28125 L 24.675781 33 L 32 33 L 32 38.574219 L 19.597656 38.574219 M 19.84375 41.382812 L 25.40625 41.382812 L 25.796875 45.847656 L 32 47.519531 L 32 53.351562 L 20.625 50.152344 "/>
<path style=" stroke:none;fill-rule:nonzero;fill:rgb(100%,100%,100%);fill-opacity:1;" d="M 45.867188 21.695312 L 31.976562 21.695312 L 31.976562 27.28125 L 45.355469 27.28125 M 44.851562 33 L 31.976562 33 L 31.976562 38.585938 L 38.8125 38.585938 L 38.164062 45.847656 L 31.976562 47.519531 L 31.976562 53.328125 L 43.328125 50.152344 "/>
</g>
</svg>
