<?xml version="1.0" encoding="UTF-8"?>
<svg xmlns="http://www.w3.org/2000/svg" xmlns:xlink="http://www.w3.org/1999/xlink" width="64px" height="64px" viewBox="0 0 64 64" version="1.1">
<g id="surface1">
<rect x="0" y="0" width="64" height="64" style="fill:rgb(96.862745%,87.45098%,11.764706%);fill-opacity:1;stroke:none;"/>
<path style=" stroke:none;fill-rule:nonzero;fill:rgb(0%,0%,0%);fill-opacity:1;" d="M 42.992188 50 C 44.28125 52.105469 45.957031 53.652344 48.925781 53.652344 C 51.414062 53.652344 53.007812 52.40625 53.007812 50.6875 C 53.007812 48.625 51.375 47.894531 48.628906 46.695312 L 47.125 46.046875 C 42.785156 44.199219 39.902344 41.882812 39.902344 36.988281 C 39.902344 32.476562 43.339844 29.042969 48.710938 29.042969 C 52.535156 29.042969 55.285156 30.375 57.265625 33.859375 L 52.582031 36.867188 C 51.550781 35.015625 50.4375 34.289062 48.710938 34.289062 C 46.949219 34.289062 45.832031 35.40625 45.832031 36.867188 C 45.832031 38.667969 46.949219 39.398438 49.53125 40.515625 L 51.035156 41.160156 C 56.144531 43.351562 59.03125 45.585938 59.03125 50.609375 C 59.03125 56.023438 54.773438 58.988281 49.0625 58.988281 C 43.476562 58.988281 39.871094 56.328125 38.105469 52.839844 Z M 21.746094 50.523438 C 22.691406 52.195312 23.550781 53.613281 25.617188 53.613281 C 27.59375 53.613281 28.839844 52.84375 28.839844 49.835938 L 28.839844 29.386719 L 34.851562 29.386719 L 34.851562 49.917969 C 34.851562 56.144531 31.203125 58.976562 25.875 58.976562 C 21.058594 58.976562 18.269531 56.484375 16.851562 53.484375 Z M 21.746094 50.523438 "/>
</g>
</svg>
