<?xml version="1.0" encoding="UTF-8"?>
<svg xmlns="http://www.w3.org/2000/svg" xmlns:xlink="http://www.w3.org/1999/xlink" width="64px" height="64px" viewBox="0 0 64 63" version="1.1">
<defs>
<linearGradient id="linear0" gradientUnits="userSpaceOnUse" x1="0.129594" y1="0.120394" x2="0.796388" y2="0.782009" gradientTransform="matrix(47.324219,0,0,46.890625,0.0351562,0.0195312)">
<stop offset="0" style="stop-color:rgb(21.960784%,49.411765%,72.156863%);stop-opacity:1;"/>
<stop offset="1" style="stop-color:rgb(21.176471%,41.176471%,58.039216%);stop-opacity:1;"/>
</linearGradient>
<linearGradient id="linear1" gradientUnits="userSpaceOnUse" x1="0.191275" y1="0.205792" x2="0.907415" y2="0.88429" gradientTransform="matrix(47.324219,0,0,46.890625,16.558594,15.894531)">
<stop offset="0" style="stop-color:rgb(100%,87.843137%,32.156863%);stop-opacity:1;"/>
<stop offset="1" style="stop-color:rgb(100%,76.470588%,19.215686%);stop-opacity:1;"/>
</linearGradient>
</defs>
<g id="surface1">
<path style=" stroke:none;fill-rule:nonzero;fill:url(#linear0);" d="M 31.730469 0.0195312 C 15.519531 0.0195312 16.53125 6.964844 16.53125 6.964844 L 16.550781 14.160156 L 32.019531 14.160156 L 32.019531 16.320312 L 10.40625 16.320312 C 10.40625 16.320312 0.0351562 15.160156 0.0351562 31.320312 C 0.0351562 47.480469 9.089844 46.910156 9.089844 46.910156 L 14.492188 46.910156 L 14.492188 39.410156 C 14.492188 39.410156 14.199219 30.460938 23.398438 30.460938 L 38.738281 30.460938 C 38.738281 30.460938 47.359375 30.601562 47.359375 22.230469 L 47.359375 8.390625 C 47.359375 8.390625 48.667969 0.0195312 31.730469 0.0195312 Z M 23.199219 4.855469 C 24.738281 4.855469 25.984375 6.085938 25.984375 7.605469 C 25.984375 9.128906 24.738281 10.355469 23.199219 10.355469 C 21.660156 10.355469 20.417969 9.128906 20.417969 7.605469 C 20.417969 6.085938 21.660156 4.855469 23.199219 4.855469 Z M 23.199219 4.855469 "/>
<path style=" stroke:none;fill-rule:nonzero;fill:url(#linear1);" d="M 32.1875 62.785156 C 48.398438 62.785156 47.386719 55.839844 47.386719 55.839844 L 47.367188 48.640625 L 31.898438 48.640625 L 31.898438 46.480469 L 53.511719 46.480469 C 53.511719 46.480469 63.882812 47.644531 63.882812 31.480469 C 63.882812 15.320312 54.828125 15.894531 54.828125 15.894531 L 49.425781 15.894531 L 49.425781 23.394531 C 49.425781 23.394531 49.71875 32.339844 40.519531 32.339844 L 25.179688 32.339844 C 25.179688 32.339844 16.558594 32.203125 16.558594 40.570312 L 16.558594 54.410156 C 16.558594 54.410156 15.25 62.785156 32.1875 62.785156 Z M 40.71875 57.945312 C 39.179688 57.945312 37.933594 56.714844 37.933594 55.195312 C 37.933594 53.675781 39.179688 52.445312 40.71875 52.445312 C 42.257812 52.445312 43.5 53.675781 43.5 55.195312 C 43.5 56.714844 42.257812 57.945312 40.71875 57.945312 Z M 40.71875 57.945312 "/>
</g>
</svg>
