<?xml version="1.0" encoding="UTF-8"?>
<svg xmlns="http://www.w3.org/2000/svg" xmlns:xlink="http://www.w3.org/1999/xlink" width="64px" height="64px" viewBox="0 0 64 64" version="1.1">
<g id="surface1">
<path style=" stroke:none;fill-rule:nonzero;fill:rgb(100%,100%,100%);fill-opacity:1;" d="M 56.136719 13.238281 L 35.9375 1.238281 C 33.527344 -0.199219 30.550781 -0.199219 28.136719 1.238281 L 7.9375 13.238281 C 5.527344 14.664062 4.039062 17.3125 4.039062 20.175781 L 4.039062 44.164062 C 4.039062 47.027344 5.523438 49.675781 7.9375 51.101562 L 28.136719 63.085938 C 29.335938 63.800781 30.6875 64.164062 32.039062 64.164062 C 33.386719 64.164062 34.726562 63.800781 35.9375 63.085938 L 56.136719 51.101562 C 58.550781 49.664062 60.039062 47.027344 60.039062 44.164062 L 60.039062 20.175781 C 60.039062 17.3125 58.550781 14.664062 56.136719 13.238281 Z M 56.136719 13.238281 "/>
<path style=" stroke:none;fill-rule:nonzero;fill:rgb(15.686275%,18.823529%,21.568627%);fill-opacity:1;" d="M 56.136719 13.238281 L 35.9375 1.238281 C 34.738281 0.527344 33.386719 0.164062 32.039062 0.164062 C 30.6875 0.164062 29.351562 0.527344 28.136719 1.238281 L 7.9375 13.238281 C 5.527344 14.664062 4.039062 17.3125 4.039062 20.175781 L 4.039062 44.164062 C 4.039062 47.027344 5.523438 49.675781 7.9375 51.101562 L 28.136719 63.085938 C 29.335938 63.800781 30.6875 64.164062 32.039062 64.164062 C 33.386719 64.164062 34.726562 63.800781 35.9375 63.085938 L 56.136719 51.101562 C 58.550781 49.664062 60.039062 47.027344 60.039062 44.164062 L 60.039062 20.175781 C 60.039062 17.3125 58.550781 14.664062 56.136719 13.238281 Z M 28.851562 61.863281 L 8.648438 49.875 C 6.675781 48.699219 5.449219 46.511719 5.449219 44.164062 L 5.449219 20.175781 C 5.449219 17.824219 6.675781 15.636719 8.648438 14.460938 L 28.851562 2.472656 C 29.824219 1.898438 30.925781 1.601562 32.039062 1.601562 C 33.148438 1.601562 34.261719 1.898438 35.226562 2.472656 L 55.425781 14.460938 C 57.085938 15.449219 58.210938 17.164062 58.527344 19.085938 C 57.851562 17.664062 56.351562 17.261719 54.585938 18.300781 L 35.472656 30.113281 C 33.085938 31.5 31.335938 33.074219 31.335938 35.9375 L 31.335938 59.488281 C 31.335938 61.210938 32.023438 62.324219 33.101562 62.648438 C 32.75 62.710938 32.398438 62.75 32.039062 62.75 C 30.925781 62.738281 29.8125 62.4375 28.851562 61.863281 Z M 28.851562 61.863281 "/>
<path style=" stroke:none;fill-rule:nonzero;fill:rgb(30.196078%,65.882353%,14.509804%);fill-opacity:1;" d="M 50.851562 46.472656 L 45.8125 49.488281 C 45.675781 49.5625 45.574219 49.648438 45.574219 49.8125 L 45.574219 51.125 C 45.574219 51.289062 45.6875 51.351562 45.8125 51.277344 L 50.925781 48.175781 C 51.0625 48.101562 51.074219 47.949219 51.074219 47.789062 L 51.074219 46.625 C 51.085938 46.460938 50.972656 46.398438 50.851562 46.472656 Z M 50.851562 46.472656 "/>
<path style=" stroke:none;fill-rule:nonzero;fill:rgb(100%,100%,100%);fill-opacity:1;" d="M 40.136719 35.398438 C 40.300781 35.3125 40.4375 35.425781 40.4375 35.636719 L 40.449219 37.375 C 41.175781 37.085938 41.8125 37.011719 42.386719 37.136719 C 42.511719 37.175781 42.5625 37.335938 42.511719 37.539062 L 42.125 39.074219 C 42.101562 39.1875 42.027344 39.3125 41.949219 39.386719 C 41.914062 39.425781 41.886719 39.449219 41.851562 39.460938 C 41.800781 39.488281 41.75 39.5 41.699219 39.488281 C 41.4375 39.425781 40.8125 39.289062 39.835938 39.789062 C 38.8125 40.3125 38.449219 41.199219 38.460938 41.863281 C 38.476562 42.648438 38.875 42.898438 40.277344 42.914062 C 42.136719 42.9375 42.949219 43.761719 42.960938 45.636719 C 42.988281 47.488281 42 49.460938 40.488281 50.6875 L 40.527344 52.414062 C 40.527344 52.625 40.386719 52.863281 40.226562 52.9375 L 39.199219 53.523438 C 39.039062 53.613281 38.898438 53.511719 38.898438 53.300781 L 38.886719 51.601562 C 38.011719 51.960938 37.125 52.050781 36.5625 51.824219 C 36.449219 51.789062 36.414062 51.625 36.449219 51.449219 L 36.824219 49.886719 C 36.851562 49.761719 36.925781 49.636719 37.011719 49.5625 C 37.050781 49.539062 37.074219 49.511719 37.113281 49.488281 C 37.175781 49.460938 37.226562 49.449219 37.277344 49.472656 C 37.886719 49.675781 38.664062 49.585938 39.414062 49.199219 C 40.363281 48.710938 41 47.75 40.988281 46.773438 C 40.976562 45.898438 40.5 45.539062 39.351562 45.523438 C 37.886719 45.523438 36.511719 45.238281 36.488281 43.074219 C 36.476562 41.300781 37.398438 39.449219 38.863281 38.273438 L 38.851562 36.539062 C 38.851562 36.324219 38.976562 36.085938 39.148438 36 Z M 40.136719 35.398438 "/>
</g>
</svg>
