<?xml version="1.0" encoding="UTF-8"?>
<svg xmlns="http://www.w3.org/2000/svg" xmlns:xlink="http://www.w3.org/1999/xlink" width="64px" height="64px" viewBox="0 0 64 64" version="1.1">
<g id="surface1">
<path style=" stroke:none;fill-rule:nonzero;fill:rgb(0%,82.352941%,72.156863%);fill-opacity:1;" d="M 17.632812 17.421875 L 13.496094 13.289062 L 13.515625 43.1875 L 13.5625 44.585938 C 13.585938 45.242188 13.707031 45.984375 13.910156 46.753906 L 46.6875 58.3125 L 54.878906 54.679688 L 54.882812 54.671875 L 17.632812 17.421875 "/>
<path style=" stroke:none;fill-rule:nonzero;fill:rgb(33.333333%,86.666667%,79.215686%);fill-opacity:1;" d="M 13.910156 46.753906 L 13.914062 46.757812 C 13.910156 46.742188 13.902344 46.726562 13.902344 46.710938 C 13.902344 46.726562 13.90625 46.742188 13.910156 46.753906 Z M 54.878906 54.679688 L 46.6875 58.3125 L 13.914062 46.757812 C 14.539062 49.15625 15.921875 51.859375 17.414062 53.335938 L 28.109375 63.96875 L 51.894531 64 L 54.882812 54.671875 Z M 54.878906 54.679688 "/>
<path style=" stroke:none;fill-rule:nonzero;fill:rgb(0%,50.588235%,77.647059%);fill-opacity:1;" d="M 0.757812 32.53125 C -0.300781 33.660156 0.226562 35.992188 1.929688 37.710938 L 9.285156 45.125 L 13.910156 46.753906 C 13.707031 45.984375 13.585938 45.242188 13.5625 44.585938 L 13.515625 43.1875 L 13.496094 13.289062 Z M 0.757812 32.53125 "/>
<path style=" stroke:none;fill-rule:nonzero;fill:rgb(0%,47.45098%,70.196078%);fill-opacity:1;" d="M 46.953125 13.671875 C 46.1875 13.476562 45.449219 13.351562 44.78125 13.332031 L 43.304688 13.28125 L 13.496094 13.285156 L 54.886719 54.671875 L 54.890625 54.671875 L 58.523438 46.46875 L 46.953125 13.671875 "/>
<path style=" stroke:none;fill-rule:nonzero;fill:rgb(0%,64.313725%,89.411765%);fill-opacity:1;" d="M 46.917969 13.664062 C 46.933594 13.667969 46.945312 13.671875 46.957031 13.671875 L 46.953125 13.671875 C 46.945312 13.667969 46.933594 13.667969 46.917969 13.664062 Z M 53.53125 17.183594 C 52.027344 15.667969 49.363281 14.292969 46.957031 13.671875 L 58.523438 46.46875 L 54.890625 54.671875 L 54.886719 54.671875 L 63.769531 51.835938 L 63.789062 27.480469 Z M 53.53125 17.183594 "/>
<path style=" stroke:none;fill-rule:nonzero;fill:rgb(0%,82.352941%,72.156863%);fill-opacity:1;" d="M 45.335938 9.074219 L 37.921875 1.714844 C 36.207031 0.015625 33.875 -0.511719 32.746094 0.546875 L 13.496094 13.285156 L 43.304688 13.28125 L 44.78125 13.332031 C 45.449219 13.351562 46.1875 13.476562 46.953125 13.671875 Z M 45.335938 9.074219 "/>
</g>
</svg>
